<?xml version="1.0" encoding="UTF-8" standalone="no"?>
<svg
   width="100%"
   height="100%"
   viewBox="0 0 1080 2227"
   xml:space="preserve"
   style="fill-rule:evenodd;clip-rule:evenodd;stroke-linejoin:round;stroke-miterlimit:2;"
   version="1.1"
   id="svg7"
   xmlns="http://www.w3.org/2000/svg"><defs id="defs7"><linearGradient id="linearGradient18"><stop style="stop-color:#143e6d;stop-opacity:1;" offset="0" /><stop style="stop-color:#143e6d;stop-opacity:0;" offset="1" /></linearGradient><linearGradient id="linearGradient16"><stop style="stop-color:#0e2d57;stop-opacity:1;" offset="0" /><stop style="stop-color:#0e2d57;stop-opacity:0;" offset="1" /></linearGradient><linearGradient id="linearGradient10" x1="921.22534" y1="1832.0581" x2="47.972141" y2="1740.9353" gradientUnits="userSpaceOnUse"><stop style="stop-color:#143e6d;stop-opacity:1;" offset="0" /><stop style="stop-color:#143e6d;stop-opacity:0;" offset="1" /></linearGradient><linearGradient id="linearGradient17" x1="149.61331" y1="1920.6796" x2="1163.3198" y2="2045.9904" gradientUnits="userSpaceOnUse"><stop style="stop-color:#0e2d57;stop-opacity:1;" offset="0" /><stop style="stop-color:#0e2d57;stop-opacity:0;" offset="1" /></linearGradient></defs><g transform="matrix(1,0,0,1,-2330.75,0)" id="g7"><g transform="matrix(1,0,0,1,2330.75,0)" id="g6"><rect id="Dark-Background-ver2" x="0" y="0" width="1080" height="2227" style="display:inline;fill:none" /><clipPath id="_clip1"><rect id="Dark-Background-ver21" x="0" y="0" width="1080" height="2227" /></clipPath><g clip-path="url(#_clip1)" id="g5"><g transform="matrix(0.5625,0,0,2.06178,0,0)" id="g4"><g transform="matrix(1.69201,0,0,1.22116,27.0904,39.2158)" id="g1"><rect x="-34.756" y="-39.434" width="1172.24" height="871.465" style="fill:rgb(19,69,118);" id="rect1" /></g><g transform="matrix(1.77778,0,0,1.47725,0,-2413.78)" id="g2"><path d="m -12.409299,1782.8445 c 33.522,-2.98 68.496,-5.16 105.014,-6.39 342.954999,-11.57 580.438999,87.78 869.715999,106.28 46.951,3 93.941,5.91 140.951,8.52 v 400.62 l -1115.680999,1.18 z" style="fill:url(#linearGradient17);fill-opacity:1" id="path1" /><path d="m -4.2617482,1821.1868 c 33.5220002,-2.98 68.4960002,-5.16 105.0139982,-6.39 342.955,-11.57 580.439,87.78 869.716,106.28 46.95105,3 93.94105,5.91 140.95105,8.52 v 400.62 l -1115.6810482,1.18 z" style="fill:#0e2d57;fill-opacity:1" id="path8" /></g><g transform="matrix(-1.77778,0,0,1.67395,1920,-2274.48)" id="g3" style="fill:#143e6d;fill-opacity:1"><path d="m -25.988551,1690.6981 c 33.5220002,-2.901 68.496,-5.0233 105.014,-6.2207 342.955001,-11.2636 580.439001,85.455 869.716001,103.465 46.951,2.9205 93.94105,5.7535 140.95105,8.2943 v 205.4795 L -25.988551,1982.392 Z" style="fill:url(#linearGradient10);fill-opacity:1" id="path7" /><path d="m -72.158006,1715.879 c 34.664415,-2.901 70.830313,-5.0233 108.59283,-6.2207 354.642756,-11.2636 600.220096,85.455 899.355526,103.465 48.55107,2.9205 97.14245,5.7535 145.75455,8.2943 v 205.4795 L -72.158006,2007.5729 Z" style="fill:#143e6d;fill-opacity:1" id="path2" /></g></g></g></g></g></svg>
